<svg width="40" height="40" viewBox="0 0 40 40" fill="none" xmlns="http://www.w3.org/2000/svg">
<circle cx="20" cy="20" r="20" fill="#58A593"/>
<path fill-rule="evenodd" clip-rule="evenodd" d="M20 22C21.66 22 22.99 20.66 22.99 19L23 13C23 11.34 21.66 10 20 10C18.34 10 17 11.34 17 13V19C17 20.66 18.34 22 20 22ZM26.08 19C25.66 19 25.31 19.3 25.25 19.71C24.88 22.32 22.53 24.1 20 24.1C17.47 24.1 15.12 22.33 14.75 19.71C14.69 19.3 14.33 19 13.92 19C13.4 19 13 19.46 13.07 19.97C13.53 22.94 16.03 25.27 19 25.72V28C19 28.55 19.45 29 20 29C20.55 29 21 28.55 21 28V25.72C23.96 25.29 26.47 22.94 26.93 19.97C27 19.46 26.6 19 26.08 19Z" fill="white"/>
</svg>
